# xmcd CD database file
# Copyright (C) 1993-1998 Ti Kan
#
# Track frame offsets:
#  150
#  752
#  20320
#  51645
#  74237
#  98662
#  124042
#  146842
#  168202
#  192332
#  211935
#  229935
#  248660
#
# Disc length: 3677 seconds
#
# Revision: 1
# Processed by: cddbd v1.4b41PL1 Copyright (c) Steve Scherf et al.
# Submitted via: CDWizzard Release:4.35
#
DISCID=b10e5b0d
DTITLE=Varied Artists - The Slow Jams Collection
DYEAR=1900
DGENRE=
TTITLE0=Intro
TTITLE1=Love's Holiday - Earth Wind and Fire
TTITLE2=After the Pain - Betty Wright
TTITLE3=Just Shopping (not Buying Anything) - The Dramatics
TTITLE4=Losing You - Atlantic Star
TTITLE5=How Lucky I Am - The Isley Brothers
TTITLE6=Family - Maze
TTITLE7=Real Love - Lakeside
TTITLE8=Lady You Are - One Way
TTITLE9=Somewhere There's a Love - Shalamar
TTITLE10=Country Girl - The Nights
TTITLE11=Still Water (Love) - O'Bryan
TTITLE12=Together Always - O'Bryan
EXTD=
EXTT0=
EXTT1=
EXTT2=
EXTT3=
EXTT4=
EXTT5=
EXTT6=
EXTT7=
EXTT8=
EXTT9=
EXTT10=
EXTT11=
EXTT12=
PLAYORDER=
